HIERARCHY
ROOT Hips
{
	OFFSET 0.000000 0.000000 0.000000
	CHANNELS 6 Xposition Yposition Zposition Zrotation Yrotation Xrotation 
	JOINT LHipJoint
	{
		OFFSET 0.000000 0.000000 0.000000
		CHANNELS 3 Zrotation Yrotation Xrotation
		JOINT LeftUpLeg
		{
			OFFSET 1.363060 -1.794630 0.839290
			CHANNELS 3 Zrotation Yrotation Xrotation
			JOINT LeftLeg
			{
				OFFSET 2.448110 -6.726130 0.000000
				CHANNELS 3 Zrotation Yrotation Xrotation
				JOINT LeftFoot
				{
					OFFSET 2.562200 -7.039590 0.000000
					CHANNELS 3 Zrotation Yrotation Xrotation
					JOINT LeftToeBase
					{
						OFFSET 0.157640 -0.433110 2.322550
						CHANNELS 3 Zrotation Yrotation Xrotation
						End Site
						{
							OFFSET 0.000000 0.000000 0.000000
						}
					}
				}
			}
		}
	}
	JOINT RHipJoint
	{
		OFFSET 0.000000 0.000000 0.000000
		CHANNELS 3 Zrotation Yrotation Xrotation
		JOINT RightUpLeg
		{
			OFFSET -1.305520 -1.794630 0.839290
			CHANNELS 3 Zrotation Yrotation Xrotation
			JOINT RightLeg
			{
				OFFSET -2.542530 -6.985550 0.000000
				CHANNELS 3 Zrotation Yrotation Xrotation
				JOINT RightFoot
				{
					OFFSET -2.568260 -7.056230 0.000000
					CHANNELS 3 Zrotation Yrotation Xrotation
					JOINT RightToeBase
					{
						OFFSET -0.164730 -0.452590 2.363150
						CHANNELS 3 Zrotation Yrotation Xrotation
						End Site
						{
							OFFSET 0.000000 0.000000 0.000000
						}
					}
				}
			}
		}
	}
}
MOTION
Frames: 19
Frame Time: 0.008333
-0.793862 17.300501 0.921197 5.794256 -84.887806 3.862252 -9.606778 1.695067 4.299207 -12.095556 -10.066671 -13.419295 -1.850414 -0.552632 10.479470 1.620283 9.243168 -6.448170 0.327600 -0.000000 -35.031499 10.552970 -0.290759 -0.382010 6.291234 -6.712751 -36.091034 -0.957513 -3.547744 55.883077 -1.501528 -6.105839 14.124180 -2.059200 0.000000 -79.693800
-0.758259 17.296168 0.954319 3.669086 -84.620659 5.824018 -9.685808 1.611496 4.113490 -12.023479 -9.638102 -13.443430 -1.858781 -0.530773 10.794675 1.540902 8.765570 -6.492910 0.290299 0.000000 -35.308100 10.578773 -0.002132 -0.502520 6.288115 -6.974954 -39.036931 -1.251849 -3.784742 60.238954 -1.581347 -5.293728 18.410229 -1.914199 0.000000 -79.495300
-0.719422 17.292093 0.985918 1.397422 -84.389365 7.889383 -9.765226 1.521653 3.896519 -11.919970 -9.174737 -13.398166 -1.860912 -0.505303 11.095891 1.467671 8.322908 -6.542445 0.254800 0.000000 -35.599600 10.576003 0.305898 -0.636593 6.333413 -7.164471 -41.950040 -1.494811 -4.016111 64.508580 -1.662514 -4.212654 22.503384 -1.523700 -0.000001 -78.723100
-0.677724 17.288659 1.015978 -1.072831 -84.189575 10.109691 -9.843425 1.426894 3.658109 -11.776164 -8.720901 -13.283456 -1.853757 -0.474545 11.391469 1.405922 7.946162 -6.603117 0.221400 0.000000 -35.874300 10.550185 0.623334 -0.793690 6.439592 -7.302415 -44.818893 -1.700647 -4.255317 68.679173 -1.730122 -2.902522 26.239654 -0.890800 -0.000000 -77.743600
-0.633245 17.286163 1.044810 -3.848320 -84.015214 12.583787 -9.922153 1.327911 3.404208 -11.577240 -8.306882 -13.092699 -1.834393 -0.436305 11.689763 1.358904 7.654983 -6.681887 0.189400 -0.000000 -36.115900 10.505877 0.942617 -0.984332 6.625625 -7.407235 -47.626536 -1.892203 -4.511210 72.743729 -1.774170 -1.446016 29.465080 -0.062500 -0.000000 -76.713100
-0.586967 17.284759 1.072632 -6.925643 -83.853715 15.321743 -10.001511 1.225934 3.149814 -11.316328 -7.982111 -12.841863 -1.800595 -0.390370 11.996604 1.331140 7.477372 -6.783210 0.159200 0.000000 -36.306700 10.445821 1.261549 -1.209226 6.900960 -7.490326 -50.385792 -2.094421 -4.786039 76.696978 -1.791990 0.042173 32.078402 0.873000 0.000000 -75.839900
-0.539571 17.284642 1.099804 -10.274860 -83.691911 18.301670 -10.084264 1.121760 2.902959 -10.992065 -7.768763 -12.541958 -1.751784 -0.336079 12.320525 1.323735 7.422005 -6.906963 0.130500 0.000000 -36.437900 10.369309 1.580245 -1.466155 7.266174 -7.556391 -53.101893 -2.326525 -5.075785 80.522873 -1.785645 1.455806 34.044074 1.817900 0.000000 -75.252600
-0.491669 17.285817 1.126578 -13.808574 -83.515512 21.446783 -10.173399 1.015415 2.671060 -10.607997 -7.681659 -12.210653 -1.688488 -0.273635 12.668631 1.336577 7.489821 -7.051141 0.102900 -0.000001 -36.508500 10.272726 1.900123 -1.747802 7.713540 -7.603333 -55.788949 -2.600033 -5.373044 84.201132 -1.760117 2.701044 35.365882 2.678000 -0.000001 -74.984000
-0.443936 17.288184 1.153290 -17.423848 -83.311917 24.666397 -10.272382 0.906546 2.457770 -10.170368 -7.716722 -11.867501 -1.612370 -0.203790 13.047149 1.367280 7.667196 -7.211532 0.075700 0.000000 -36.526500 10.150791 2.222006 -2.043235 8.228599 -7.622399 -58.463151 -2.917772 -5.668933 87.703790 -1.720931 3.715034 36.086048 3.383100 0.000000 -74.994900
-0.397325 17.291562 1.179838 -20.941118 -83.070414 27.799192 -10.380274 0.794835 2.267902 -9.694923 -7.872462 -11.532971 -1.525988 -0.129114 13.454121 1.413720 7.942642 -7.379615 0.049400 0.000000 -36.502000 10.000188 2.545904 -2.336470 8.782501 -7.602402 -61.150863 -3.275559 -5.956298 91.001069 -1.672643 4.476748 36.278179 3.900600 0.000001 -75.173600
-0.352161 17.295631 1.206588 -24.312422 -82.787725 30.803877 -10.499755 0.679736 2.095236 -9.185226 -8.104724 -11.221925 -1.432735 -0.050650 13.893174 1.469140 8.273482 -7.551862 0.022800 -0.000000 -36.455800 9.817105 2.870866 -2.615236 9.354926 -7.527902 -63.861173 -3.662340 -6.227654 94.056530 -1.619072 4.996705 36.044667 4.230100 0.000000 -75.388699
-0.308917 17.299994 1.233161 -27.406433 -82.463594 33.558294 -10.625765 0.561194 1.937978 -8.659606 -8.391467 -10.943965 -1.336359 0.028445 14.352160 1.529533 8.636331 -7.718615 -0.003401 0.000000 -36.402500 9.602791 3.196701 -2.864100 9.907633 -7.388568 -66.615234 -4.063838 -6.479578 96.839546 -1.563095 5.317583 35.510591 4.402500 0.000001 -75.484900
-0.267993 17.304285 1.259229 -30.155667 -82.104156 36.000749 -10.752867 0.439729 1.789958 -8.133968 -8.700306 -10.698263 -1.240780 0.105498 14.815077 1.590204 9.002884 -7.873036 -0.028400 0.000000 -36.356100 9.360541 3.523411 -3.071582 10.403346 -7.178283 -69.422501 -4.463429 -6.710236 99.322332 -1.507578 5.494033 34.816456 4.463200 0.000000 -75.330900
-0.229246 17.308141 1.284831 -32.611969 -81.716894 38.177891 -10.881751 0.315822 1.640444 -7.608181 -8.977549 -10.482611 -1.149412 0.179858 15.274075 1.643926 9.327496 -8.015518 -0.053100 0.000000 -36.330500 9.091438 3.849746 -3.232549 10.824268 -6.895352 -72.277621 -4.843020 -6.917401 101.481231 -1.456033 5.574906 34.108059 4.456700 0.000000 -74.855200
-0.192625 17.311202 1.309730 -34.786844 -81.310255 40.095968 -11.009831 0.189995 1.482063 -7.089621 -9.192446 -10.285749 -1.065096 0.250273 15.712666 1.686498 9.584547 -8.144981 -0.077300 0.000000 -36.331500 8.798852 4.174433 -3.344331 11.149427 -6.548165 -75.174559 -5.185807 -7.101095 103.298057 -1.412121 5.601201 33.519176 4.421800 -0.000000 -74.079600
-0.158306 17.313316 1.333355 -36.656564 -80.894560 41.729847 -11.130863 0.063234 1.310894 -6.594440 -9.337283 -10.089998 -0.990152 0.315015 16.109311 1.716925 9.768505 -8.259355 -0.100300 -0.000000 -36.352800 8.488968 4.496213 -3.406705 11.355482 -6.155522 -78.106447 -5.478998 -7.263601 104.766518 -1.379149 5.601534 33.154987 4.386900 0.000000 -73.122699
-0.125963 17.314304 1.355508 -38.256236 -80.477779 43.105301 -11.243399 -0.064113 1.123150 -6.127306 -9.403425 -9.880994 -0.925755 0.374013 16.453262 1.734123 9.871998 -8.361333 -0.122001 -0.000000 -36.387301 8.165426 4.812188 -3.424473 11.439609 -5.739456 -81.056925 -5.712390 -7.406105 105.884676 -1.359753 5.585459 33.080024 4.364199 -0.000000 -72.173200
-0.095168 17.314162 1.376695 -39.690887 -80.062944 44.316885 -11.354519 -0.192346 0.914101 -5.672975 -9.367990 -9.653125 -0.871813 0.429115 16.749866 1.735293 9.875151 -8.460535 -0.144300 -0.000000 -36.431900 7.826985 5.116290 -3.407259 11.426019 -5.319399 -83.997201 -5.876996 -7.527543 106.647659 -1.355397 5.542718 33.309933 4.348199 0.000000 -71.437600
-0.065977 17.312940 1.396336 -40.910344 -79.657738 45.316255 -11.456415 -0.320611 0.689177 -5.250232 -9.268853 -9.395647 -0.828168 0.479366 16.989262 1.725379 9.808555 -8.554830 -0.165800 0.000001 -36.465500 7.481106 5.405983 -3.359146 11.309189 -4.923057 -86.918237 -5.971170 -7.631056 107.062977 -1.365665 5.461167 33.814239 4.327900 -0.000000 -71.107700
